<?xml version="1.0" encoding="utf-8"?>
<!-- Generator: Adobe Illustrator 26.0.3, SVG Export Plug-In . SVG Version: 6.00 Build 0)  -->
<svg version="1.1" id="HubBoard" xmlns="http://www.w3.org/2000/svg" x="0px" y="0px"
	 viewBox="0 0 200 200" style="enable-background:new 0 0 200 200;" xml:space="preserve">
<style type="text/css">
	.st0{fill:#26D6FC;}
	.st1{fill:none;stroke:#8D8D8D;stroke-width:2;stroke-miterlimit:10;}
	.st2{fill:#FE9047;}
	.st3{fill:#FDD9C1;}
	.st4{fill:#FD766F;}
	.st5{fill:#000101;}
	.st6{fill:#FDAFAB;}
	.st7{fill:#C9C9C9;}
	.st8{fill:#8D8D8D;}
	.st9{fill:#F9F9F9;}
</style>
<g>
	<circle class="st0" cx="100" cy="100" r="100"/>
</g>
<line class="st1" x1="83.5" y1="130" x2="58.5" y2="114"/>
<line class="st1" x1="118" y1="135" x2="141" y2="98"/>
<line class="st1" x1="100" y1="121" x2="100" y2="51"/>
<path id="cloud" d="M100,125c6.55,0,12.2,4.65,13.47,11.07l0.75,3.75l3.82,0.28c3.9,0.25,6.95,3.52,6.95,7.4
	c0,4.12-3.38,7.5-7.5,7.5H85c-5.53,0-10-4.48-10-10c0-5.12,3.82-9.4,8.9-9.93l2.67-0.27l1.25-2.38C90.2,127.85,94.85,125,100,125
	 M100,120c-7.22,0-13.5,4.1-16.62,10.1C75.85,130.9,70,137.27,70,145c0,8.27,6.72,15,15,15h32.5c6.9,0,12.5-5.6,12.5-12.5
	c0-6.6-5.12-11.95-11.62-12.4C116.68,126.47,109.1,120,100,120z"/>
<path class="st2" d="M69,115H51c-3.31,0-6-2.69-6-6V91c0-3.31,2.69-6,6-6h18c3.31,0,6,2.69,6,6v18C75,112.31,72.31,115,69,115z"/>
<path class="st3" d="M149,100h-18c-3.31,0-6-2.69-6-6V76c0-3.31,2.69-6,6-6h18c3.31,0,6,2.69,6,6v18C155,97.31,152.31,100,149,100z"
	/>
<path class="st4" d="M109,55H91c-3.31,0-6-2.69-6-6V31c0-3.31,2.69-6,6-6h18c3.31,0,6,2.69,6,6v18C115,52.31,112.31,55,109,55z"/>
<g id="pen">
	<path class="st5" d="M140.63,169.98c2.48,0.21,4.55-1.22,6.86-1.68c4.05-0.82,7.09-3.08,9.95-6.01
		c9.8-10.04,19.74-19.95,29.76-29.78c2.3-2.26,3.33-4.62,2.5-7.73c-0.54-0.68-1.05-1.39-1.63-2.02c-3.38-3.65-6.69-3.68-10.24-0.14
		c-10.7,10.68-21.39,21.37-32.11,32.03c-1.36,1.35-2.39,2.82-2.92,4.68c-0.74,2.56-1.62,5.07-2.42,7.6
		C140.04,167.99,139.68,169.04,140.63,169.98z"/>
	<path class="st3" d="M146.34,163.41c2.33-2.47,4.3-4.66,6.38-6.74c6.79-6.83,13.58-13.67,20.46-20.41c1.3-1.28,1.58-1.99,0.06-3.31
		c-2.32-2.02-2.21-2.13-4.31-0.02c-7.42,7.43-14.8,14.9-22.31,22.25c-1.51,1.48-2.27,2.75-1.27,4.78
		C145.78,160.82,145.9,161.84,146.34,163.41z"/>
	<path class="st2" d="M146.58,163.9c2.19,0.53,3.72,0.85,5.22,1.3c0.86,0.26,1.32-0.13,1.86-0.67c8.18-8.2,16.36-16.39,24.58-24.54
		c0.86-0.85,0.68-1.29-0.06-2.06c-2.6-2.7-2.57-2.73-5.25-0.07c-7.89,7.87-15.78,15.74-23.68,23.61
		C148.54,162.18,147.77,162.83,146.58,163.9z"/>
	<path class="st6" d="M186.81,123.05c-2.56-2.77-5.11-2.86-7.75-0.26c-2.88,2.83-2.88,2.84-0.08,5.63c0.4,0.4,0.84,0.77,1.26,1.15
		c0.19,0.1,0.45,0.25,0.6,0.16c2.52-1.54,4.52-3.61,6.12-6.08C187.06,123.5,186.92,123.24,186.81,123.05z"/>
	<path class="st4" d="M186.81,123.05c-1.77,2.6-3.95,4.78-6.56,6.51c1.43,1.32,2.87,2.64,4.32,3.96
		C189.98,128.82,190.5,126.55,186.81,123.05z"/>
	<path class="st7" d="M179.35,130.4c-0.5-0.52-0.98-1.05-1.49-1.57c-2.41-2.42-2.34-2.33-4.76-0.08c-1.22,1.14-1.24,1.84,0.04,2.83
		c0.85,0.66,1.56,1.5,2.33,2.26C177.57,133.86,179.39,132.25,179.35,130.4z"/>
	<path class="st8" d="M179.35,130.4c-0.81,1.69-2.17,2.77-3.88,3.45c0.64,0.67,1.28,1.34,1.93,2c2.48,2.5,3.76,2.31,5.68-0.7
		c0.47-0.74,0.03-1.04-0.36-1.43C181.61,132.59,180.47,131.5,179.35,130.4z"/>
	<path class="st9" d="M150.61,166.27c-4.25-0.39-6.01-2.91-6.27-6.96c-1.07,1.02-1.04,2.12-1.43,3.04c-0.4,0.91-0.68,1.89-0.91,2.87
		c-0.25,1.01,2.13,3.14,3.14,2.83C146.97,167.47,148.79,166.86,150.61,166.27z"/>
</g>
</svg>
