<svg
    xmlns="http://www.w3.org/2000/svg"
    viewBox="0 0 20 23"
    id="vector">
    <path
        id="path"
        d="M 1 22 L 19 22 L 19 20 L 1 20 L 1 22 Z M 1 17 L 19 17 L 19 15 L 1 15 L 1 17 Z M 1 10 L 1 12 L 19 12 L 19 10 L 1 10 Z"
        fill="#000000"/>
    <path
        id="path_1"
        d="M 6.4 6 L 6.4 2.2 L 6.4 2.2 L 4.8 6 L 4.3 6 L 2.7 2.2 L 2.7 2.2 L 2.7 6 L 2.1 6 L 2.1 1 L 2.8 1 L 4.5 5.1 L 4.5 5.1 L 6.2 1 L 6.9 1 L 6.9 6 L 6.4 6 Z"
        fill="#000000"/>
    <path
        id="path_2"
        d="M 10.8 4.9 C 10.7 5.5 10.1 6 9.3 6 C 8.3 6 7.7 5.3 7.7 4.2 C 7.7 3.1 8.3 2.3 9.3 2.3 C 10.3 2.3 10.9 3 10.9 4.1 L 10.9 4.3 L 8.4 4.3 L 8.4 4.3 C 8.4 5 8.8 5.4 9.4 5.4 C 9.9 5.4 10.2 5.2 10.3 4.8 L 10.8 4.8 L 10.8 4.9 Z M 8.3 3.9 L 10.2 3.9 C 10.2 3.3 9.8 2.9 9.3 2.9 C 8.7 2.9 8.3 3.3 8.3 3.9 Z"
        fill="#000000"/>
    <path
        id="path_3"
        d="M 11.4 2.4 L 12 2.4 L 12 3 L 12 3 C 12.2 2.6 12.6 2.4 13.1 2.4 C 13.9 2.4 14.3 2.9 14.3 3.7 L 14.3 6 L 13.7 6 L 13.7 3.8 C 13.7 3.2 13.4 2.9 12.9 2.9 C 12.3 2.9 12 3.3 12 3.9 L 12 6 L 11.4 6 C 11.4 6 11.4 2.4 11.4 2.4 Z"
        fill="#000000"/>
    <path
        id="path_4"
        d="M 18 6 L 17.4 6 L 17.4 5.4 L 17.4 5.4 C 17.2 5.8 16.8 6 16.3 6 C 15.5 6 15.1 5.5 15.1 4.7 L 15.1 2.4 L 15.7 2.4 L 15.7 4.6 C 15.7 5.2 16 5.5 16.5 5.5 C 17.1 5.5 17.4 5.1 17.4 4.5 L 17.4 2.4 L 18 2.4 L 18 6 Z"
        fill="#000000"/>
</svg>
