<?xml version="1.0" encoding="utf-8"?>
<!-- Generator: Adobe Illustrator 26.0.3, SVG Export Plug-In . SVG Version: 6.00 Build 0)  -->
<svg version="1.1" id="圖層_1" xmlns="http://www.w3.org/2000/svg" x="0px" y="0px"
	 viewBox="0 0 300 300" style="enable-background:new 0 0 300 300;" xml:space="preserve">
<style type="text/css">
	.st0{opacity:0.85;fill:#1A73E7;enable-background:new    ;}
	.st1{fill:#FEFEFE;}
	.st2{fill:#185ABB;}
	.st3{fill:#185ABC;}
	.st4{fill:#0066E6;}
	.st5{fill:#1858B8;}
	.st6{fill:#006AE6;}
	.st7{fill:#0169E6;}
	.st8{fill:#1567D3;}
	.st9{fill:#0C6CE7;}
	.st10{fill:#0049B8;}
	.st11{fill:#006BE6;}
	.st12{fill:#89B3F7;}
	.st13{fill:#0046B8;}
	.st14{fill:#82B0F7;}
	.st15{fill:#80AEF7;}
</style>
<g>
	<path class="st0" d="M0.12,299.88c0-98.25,0-196.5-0.12-294.75C0,0.88,0.88,0,5.12,0c96.62,0.13,193.12,0.13,289.75,0
		c4.25,0,5.12,0.88,5.12,5.13c-0.12,96.62-0.12,193.12,0,289.75c0,4.25-0.87,5.12-5.12,5.12C196.62,299.88,98.38,299.88,0.12,299.88
		z"/>
	<path class="st1" d="M75.12,194.62c-0.12-1.13-0.25-2.38-0.37-3.5c-1.75-2.38-1.5-5-1.5-7.75c0-15.25,0-30.5,0-45.75
		c0.25-3.25-1.13-6-2.5-8.75c-3-7.5-8.87-13.25-12.75-20.37c-2.25-4-4-8.12-5.12-12.5v0.25c-1.62-2.63-1.5-5.13,0.75-7.5
		c1-0.75,1.88-1.38,2.87-2.13c1.13-1.88,3-1,4.5-1c49.25,0,98.38,0,147.62,0c1.62,0,3.38-0.62,4.75,0.88
		c10.12,2.75,17.63,8.62,21.5,18.75c0.87,2,1.37,4.25,2,6.38c0,25.5,0,51.12,0,76.63c-1,3-1.37,6.25-2.12,9.38
		c-5,12.62-12,18.12-22.75,18.12c-37.87,0-75.88,0-113.75,0C85.25,215.37,78.12,208.87,75.12,194.62z"/>
	<path class="st2" d="M213.38,213.5c8.87-2.75,16.37-7.13,20.37-16c1.13-0.25,1.63,0,1.25,1.25c-2.62,13.63-10.88,21.37-23.87,22.38
		c-1.37-0.88-2.75-0.62-4.25-0.62c-34.63,0-69.25,0-103.87,0c-1.37,0-2.87-0.25-4.25,0.62c-14.63-1.25-24-11.62-23.75-26.5
		c4,9.88,11.13,16.25,21.5,18.75c1.13,1.37,2.75,0.88,4.12,0.88c36.13,0,72.38,0,108.5,0C210.62,214.25,212.25,214.75,213.38,213.5z
		"/>
	<path class="st3" d="M52.87,96.12c7.25,9.88,13.87,20.25,19.88,31c0.62,2.75,1,5.37-0.25,8.12c-6-8.75-11.88-17.62-17.87-26.38
		C51.88,104.75,52.62,100.37,52.87,96.12z"/>
	<path class="st4" d="M213.38,86.5c-51,0-102.13,0-153.25,0c-1.25,0-2.5,0.12-3.75,0.25c1.75-2,4.12-1.62,6.37-1.62
		c48.63,0,97.25,0,145.88,0C210.25,85.12,212.5,83.87,213.38,86.5z"/>
	<path class="st5" d="M98.87,221.13c2-1.5,4.38-1.25,6.62-1.25c33,0,66,0,99.12,0c2.25,0,4.63-0.25,6.62,1.25
		C173.75,221.13,136.25,221.13,98.87,221.13z"/>
	<path class="st6" d="M236,189.62c0-26.5,0-53,0-79.5c0.5-0.62,0.87-0.62,1.37,0c0,24.75,0,49.62,0,74.37c0,2.25,0.38,4.63-1.13,6.5
		c-0.38-0.25-0.62-0.5-0.5-0.88S235.87,189.62,236,189.62z"/>
	<path class="st7" d="M73.75,136.62c0.12,15.12,0.12,30.25,0.25,45.25c0,3.12,0.37,6.13,0.62,9.25c-2.87-1.5-2.13-4.25-2.13-6.62
		c0-16.13,0-32.13,0-48.25C73.25,135.37,73.63,135.5,73.75,136.62z"/>
	<path class="st8" d="M236,189.62c0.12,0.5,0.12,0.88,0.25,1.37c-0.25,2.62,0.38,5.37-1.25,7.75c-0.38-0.37-0.87-0.88-1.25-1.25
		C234.5,194.88,235.25,192.25,236,189.62z"/>
	<path class="st9" d="M53.63,88.87c-1.13,2.38-1,5-0.75,7.5C51,93.62,50.25,91,53.63,88.87z"/>
	<path class="st10" d="M73.75,136.62c-0.37-0.12-0.88-0.25-1.25-0.25c0-0.37,0-0.88-0.12-1.25c0.12-2.75,0.12-5.37,0.25-8.12
		C75.25,130,73.75,133.38,73.75,136.62z"/>
	<path class="st11" d="M237.38,110c-0.5,0-1,0-1.37,0c-1.37-1.38-1.13-3.12-1.13-4.88C237.38,106,236.13,108.62,237.38,110z"/>
	<path class="st12" d="M206.13,113.87c4,1.87,5.5,5,4.38,9.13c-1.25,4.25-4.5,5.62-8.63,5.62c-31.88,0-63.75,0-95.5,0
		c-3.63,0-6.75-1.13-8.12-4.63s-1.25-7,2.5-9.25c2.25-0.88,4.5-0.5,6.75-0.5c30.62,0,61.25,0,91.88,0
		C201.62,114.37,203.87,114.75,206.13,113.87z"/>
	<path class="st12" d="M206.75,143.63c5.62,4.38,5.62,8.25,0,12.75c-2.25,0.88-4.5,0.5-6.75,0.5c-30.12,0-60.37,0-90.5,0
		c-2.25,0-4.63-0.37-6.88,0.37c-7.25-4.63-7.25-9.88,0-14.5c8.75,0.88,17.5,0.25,26.13,0.37c23.75,0.12,47.5,0,71.13,0
		C202.25,143.12,204.63,142.75,206.75,143.63z"/>
	<path class="st12" d="M100.75,185.12c-3.63-2-3.75-5.37-2.75-8.63c1-3.63,4-5.12,7.62-5.12c24,0,48,0,72.13,0
		c4,0,6.88,1.88,7.87,5.75c1.13,4.12-0.37,7.25-4.5,9c-15-1-30-0.12-44.88-0.5C124.38,185.37,112.5,186.25,100.75,185.12z"/>
	<path class="st13" d="M213.38,213.5c-0.88,2.62-3.12,1.37-4.75,1.37c-35.75,0.12-71.5,0.12-107.25,0c-1.5,0-3.87,1.25-4.75-1.37
		C135.5,213.5,174.5,213.5,213.38,213.5z"/>
	<path class="st14" d="M206.13,113.87c-1.62,1.12-3.5,1.12-5.37,1.12c-33.38,0-66.62-0.13-100-0.13c1.62-1.62,3.75-1.5,5.88-1.5
		c32,0,63.87,0,95.88,0C203.63,113.5,204.88,113.75,206.13,113.87z"/>
	<path class="st15" d="M206.75,143.63c-32.87,0-65.88,0.12-98.75,0.12c-1.88,0-3.75,0-5.37-1c12.25-0.12,24.38-0.37,36.62-0.37
		c19.88-0.12,39.75,0,59.75,0C201.62,142.38,204.5,141.75,206.75,143.63z"/>
	<path class="st15" d="M102.62,157.25c1.62-1,3.5-1,5.37-1c32.87,0,65.88,0.12,98.75,0.12c-1.5,1.37-3.5,1.25-5.25,1.25
		c-31.88,0-63.87,0-95.75,0C104.75,157.62,103.63,157.38,102.62,157.25z"/>
	<path class="st14" d="M100.75,185.12c25,0,50-0.12,75-0.12c1.88,0,3.75,0,5.37,1c-14.88,1.25-29.75,0.25-44.75,0.5
		c-9.5,0.12-19,0-28.63,0C105.37,186.5,102.75,187,100.75,185.12z"/>
</g>
</svg>
