<?xml version="1.0" encoding="utf-8"?>
<!-- Generator: Adobe Illustrator 26.1.0, SVG Export Plug-In . SVG Version: 6.00 Build 0)  -->
<svg version="1.1" id="圖層_1" xmlns="http://www.w3.org/2000/svg" x="0px" y="0px"
	 viewBox="0 0 50 50" style="enable-background:new 0 0 50 50;" xml:space="preserve">
<style type="text/css">
	.st0{fill:url(#rect4130_00000032632274443477978530000000796365765120241840_);}
	
		.st1{opacity:0.2;fill-rule:evenodd;clip-rule:evenodd;fill:url(#path4297_00000010295758686308816500000012930712514281573764_);enable-background:new    ;}
	.st2{fill:url(#path4202_00000165924097064945162480000001681959254226372766_);}
</style>
<g id="layer1" transform="matrix(1 0 0 1 -384.57143 -515.798)">
	
		<linearGradient id="rect4130_00000145760969136531645930000000308981801803051920_" gradientUnits="userSpaceOnUse" x1="794.1429" y1="2.05" x2="794.1429" y2="51.95" gradientTransform="matrix(1 0 0 -1 -384.5714 567.798)">
		<stop  offset="0" style="stop-color:#197CF1"/>
		<stop  offset="1" style="stop-color:#20BCFA"/>
	</linearGradient>
	<path id="rect4130" style="fill:url(#rect4130_00000145760969136531645930000000308981801803051920_);" d="M409.57,515.85
		L409.57,515.85c13.78,0,24.95,11.17,24.95,24.95l0,0c0,13.78-11.17,24.95-24.95,24.95l0,0c-13.78,0-24.95-11.17-24.95-24.95l0,0
		C384.62,527.02,395.79,515.85,409.57,515.85z"/>
	
		<linearGradient id="path4297_00000002357852257378800940000008853453676657847728_" gradientUnits="userSpaceOnUse" x1="395.3143" y1="553.4908" x2="420.2643" y2="528.5409" gradientTransform="matrix(1 0 0 -1 0 1083.5959)">
		<stop  offset="0" style="stop-color:#292C2F"/>
		<stop  offset="1" style="stop-color:#000000;stop-opacity:0"/>
	</linearGradient>
	
		<path id="path4297" style="opacity:0.2;fill-rule:evenodd;clip-rule:evenodd;fill:url(#path4297_00000002357852257378800940000008853453676657847728_);enable-background:new    ;" d="
		M413.14,530.11l-1.78,1.78v3.56l1.78,1.78l1.78,1.78v1.78l-7.13-7.13h-1.78h-3.56l-1.78,1.78v3.56l1.78,1.78l1.78,1.78v1.78h-3.56
		l-1.78,1.78l-1.78,3.56l-1.78,3.56l12.38,12.38c0.62,0.05,1.24,0.09,1.88,0.09c12.15,0,22.22-8.61,24.47-20.08l-15.56-15.56h-1.78
		H413.14z"/>
	
		<linearGradient id="path4202_00000094576503424066870230000004867189421102285235_" gradientUnits="userSpaceOnUse" x1="795.1429" y1="15.525" x2="795.1429" y2="40.475" gradientTransform="matrix(1 0 0 -1 -385.5714 568.798)">
		<stop  offset="0" style="stop-color:#7CBAF8"/>
		<stop  offset="1" style="stop-color:#F4FCFF"/>
	</linearGradient>
	<path id="path4202" style="fill:url(#path4202_00000094576503424066870230000004867189421102285235_);" d="M414.92,528.5
		c-2.96,0-5.35,2.38-5.35,5.35c0,2.59,1.83,4.74,4.27,5.24c-2.07,0.25-3.92,1.21-5.3,2.62c0.58,0.25,1.13,0.56,1.66,0.91
		c1.26-1.12,2.9-1.82,4.73-1.82c3.95,0,7.13,3.18,7.13,7.13h-7.75c0.21,0.58,0.36,1.18,0.47,1.78h9.06v-1.78
		c0-4.57-3.41-8.31-7.83-8.84c2.44-0.5,4.27-2.65,4.27-5.24C420.26,530.89,417.88,528.5,414.92,528.5z M414.92,530.28
		c1.97,0,3.56,1.59,3.56,3.56s-1.59,3.56-3.56,3.56s-3.56-1.59-3.56-3.56S412.94,530.28,414.92,530.28z M404.23,531.89
		c-2.96,0-5.35,2.38-5.35,5.35s2.38,5.35,5.35,5.35s5.35-2.38,5.35-5.35S407.19,531.89,404.23,531.89z M404.23,542.58
		c-4.94,0-8.91,3.97-8.91,8.91v1.78h17.82v-1.78C413.14,546.55,409.16,542.58,404.23,542.58z M404.23,533.67
		c1.97,0,3.56,1.59,3.56,3.56s-1.59,3.56-3.56,3.56s-3.56-1.59-3.56-3.56S402.25,533.67,404.23,533.67z M404.23,544.36
		c3.95,0,7.13,3.18,7.13,7.13H397.1C397.1,547.54,400.28,544.36,404.23,544.36z"/>
</g>
</svg>
