<?xml version="1.0" encoding="utf-8"?>
<!-- Generator: Adobe Illustrator 26.0.3, SVG Export Plug-In . SVG Version: 6.00 Build 0)  -->
<svg version="1.1" id="圖層_1" xmlns="http://www.w3.org/2000/svg" x="0px" y="0px"
	 viewBox="0 0 200 200" style="enable-background:new 0 0 200 200;" xml:space="preserve">
<style type="text/css">
	.st0{fill:#E1E1E1;}
	.st1{fill:#E2E2E2;}
	.st2{fill:#FEFEFE;}
	.st3{fill:#FED634;}
	.st4{fill:#FED11F;}
	.st5{fill:#FECF15;}
	.st6{fill:#FED841;}
	.st7{fill:#FECE10;}
	.st8{fill:#C6C6CB;}
	.st9{fill:#D3D3D2;}
	.st10{fill:#FEDD5B;}
	.st11{fill:#FEDB51;}
	.st12{fill:#9A9A9A;}
	.st13{fill:#FEDC55;}
	.st14{fill:#FED947;}
	.st15{fill:#FEDA4C;}
	.st16{fill:#E4E4E4;}
	.st17{fill:#CBCBCF;}
	.st18{fill:#CBCBD0;}
	.st19{fill:#C9C9CD;}
	.st20{fill:#C9C9CE;}
	.st21{fill:#FECC05;}
	.st22{fill:#FECC02;}
	.st23{fill:#FECC04;}
	.st24{fill:none;stroke:#E6E6E6;stroke-width:4;stroke-miterlimit:10;}
	.st25{fill:none;stroke:#000000;stroke-width:3;stroke-miterlimit:10;}
</style>
<g>
	<path class="st0" d="M200,51.08c0,3.23,0,6.46,0,9.69c0,30.94-4.25,2.91-4.78,0.79c-1.27-3.26-4.13-2.52-6.58-2.52
		c-20.5-0.04-41,0.03-61.5-0.09c-2.47-0.01-5.66,1.01-6.79-2.7c2.15-1.96,4.82-1.52,7.36-1.52c20.61-0.03,41.21,0.01,61.82-0.06
		c2.09-0.01,4.47,0.86,6.19-1.2c0.39-0.82,0.5-1.71,0.54-2.61C196.33,47.44,200,47.31,200,51.08z"/>
	<path class="st1" d="M2.21,41.99C1.83,36.51,5.13,41.84,5,42.86c-0.38,2.71-0.24,5.43-0.14,8.16c0.06,0.89,0.18,1.76,0.62,2.55
		c1.82,1.92,4.17,1.09,6.26,1.09c21.63,0.07,43.26,0.03,64.89,0.06c2.53,0,5.18-0.42,7.35,1.49c-1.01,3.82-4.25,2.72-6.67,2.74
		C55.89,59.07,34.48,59,13.07,59.05c-2.31,0.01-4.81-0.64-6.75,1.31c-1.67,2.48-1.26,5.32-1.3,8.03C4.88,78.67,1.09,88.53,1.1,60.72
		c0-4.4,0-8.8,0-13.21C2.47,45.87,0.9,43.64,2.21,41.99z"/>
	<path class="st2" d="M3.31,149.17c0-15.47,0-30.94,0-46.41c1.95-1.82,4.39-1.65,6.77-1.65c60.31-0.01,120.62-0.01,180.93,0
		c2.39,0,4.83-0.18,6.77,1.65c0,15.47,0,30.94,0,46.41c-1.95,1.82-4.39,1.65-6.77,1.65c-60.31,0.01-120.62,0.01-180.93,0
		C7.7,150.82,5.26,150.99,3.31,149.17z"/>
	<path class="st2" d="M17.68,187.85c-1.05-1.89-2.53-3.37-4.42-4.42c-1.1-1.92-2.12-3.89-3.33-5.74c-2.45-3.74-3.52-8.04-5.13-12.12
		c-0.12-0.31-0.41-0.66-0.35-0.94c0.81-4.16-1.72-8.01-1.13-12.15c1.95-1.82,4.39-1.65,6.77-1.65c60.31-0.01,120.62-0.01,180.93,0
		c2.39,0,4.83-0.18,6.77,1.65c0,1.84,0,3.68,0,5.52c-1.25,1.25,0.08,3.15-1.1,4.42c-0.68,6.02-3.08,11.49-6.17,16.54
		c-3.7,6.05-8.78,10.81-15.54,13.5c-0.22,0.09-0.27,0.59-0.39,0.91c-2.99,0.11-5.31,2.18-8.39,2.55c-3.75,0.45-7.51,1.79-11.31,1.8
		c-36.25,0.11-72.5,0.07-108.75,0.07c-0.92,0-1.92,0.24-2.75-0.04c-3.84-1.3-7.92-1.31-11.76-2.31c-1.89-0.49-4.05-1.33-5.6-2.32
		C23.26,191.37,20.62,189.37,17.68,187.85z"/>
	<path class="st2" d="M3.31,99.45c0.09-12.43,0.18-24.86,0.3-37.29c0-0.26,0.49-0.52,0.75-0.78c-0.84-0.75-1.26-1.67-1.05-2.81
		c1.87-0.89,3.75-0.73,5.64-0.07c0.81,0.6,0.99,1.84,2.15,2.1c0.94-0.26,1.13-1.25,1.74-1.83c1.93-1.16,3.93-0.93,5.94-0.27
		c0.66,0.6,0.29,1.82,1.32,2.21c0.88-0.46,1.07-1.47,1.73-2.09c2.01-0.88,4.02-0.87,6.03-0.03c0.6,0.59,0.9,1.44,1.67,1.94
		c1.37,0.25,1.36-1.22,2.1-1.77c1.93-1.14,3.92-0.92,5.93-0.26c0.66,0.6,0.29,1.82,1.32,2.21c0.88-0.46,1.07-1.47,1.73-2.09
		c2.01-0.88,4.02-0.87,6.03-0.03c0.6,0.59,0.9,1.44,1.67,1.94c1.37,0.25,1.36-1.22,2.1-1.77c1.93-1.14,3.92-0.92,5.93-0.26
		c0.66,0.6,0.29,1.82,1.32,2.21c0.88-0.46,1.07-1.47,1.73-2.09c2.01-0.88,4.02-0.87,6.03-0.03c0.6,0.59,0.9,1.44,1.66,1.94
		c1.39,0.25,1.38-1.22,2.12-1.77c1.93-1.14,3.92-0.92,5.92-0.26c0.63,0.62,0.36,1.78,1.26,2.24c0.93-0.49,1.12-1.5,1.79-2.12
		c2.01-0.85,4.02-0.92,6.03-0.01c0.62,0.59,0.9,1.47,1.7,1.94c1.37,0.17,1.36-1.28,2.1-1.87c1.89-1.61,3.85-1.73,5.86-0.25
		c0.61,0.6,0.39,1.63,1.14,2.19c1.23-0.15,1.21-1.49,1.98-2.08c1.99-1.53,3.99-1.54,5.98-0.03c0.6,0.61,0.9,1.48,1.69,2.01
		c1.41,0.26,1.38-1.25,2.12-1.83c1.89-1.62,3.85-1.74,5.87-0.26c0.57,0.62,0.46,1.6,1.07,2.2c1.31-0.15,1.28-1.49,2.04-2.08
		c1.99-1.74,3.98-1.11,5.97-0.01c0.62,0.59,0.92,1.44,1.68,1.98c1.4,0.32,1.37-1.21,2.13-1.74c1.93-1.15,3.92-0.93,5.93-0.27
		c0.63,0.62,0.36,1.78,1.26,2.24c0.93-0.49,1.12-1.5,1.79-2.12c2.01-0.88,4.02-0.87,6.03-0.03c0.6,0.59,0.9,1.44,1.67,1.94
		c1.37,0.25,1.36-1.22,2.1-1.77c1.93-1.14,3.92-0.92,5.93-0.26c0.66,0.6,0.29,1.82,1.32,2.21c0.88-0.46,1.07-1.47,1.73-2.09
		c2.01-0.88,4.02-0.87,6.03-0.03c0.6,0.59,0.9,1.44,1.67,1.94c1.37,0.25,1.36-1.22,2.1-1.77c1.93-1.14,3.92-0.92,5.93-0.26
		c0.66,0.6,0.29,1.82,1.32,2.21c0.88-0.46,1.07-1.47,1.73-2.09c2.01-0.88,4.02-0.87,6.03-0.02c0.61,0.59,0.9,1.44,1.68,1.94
		c1.37,0.24,1.36-1.23,2.11-1.78c1.93-1.13,3.92-0.91,5.92-0.26c0.64,0.6,0.31,1.79,1.3,2.22c1.04-0.5,1.17-1.84,2.2-2.36
		c2.02,0.29,5.42-2.41,5.34,2.45c-0.52,1.72,1.44,2.75,1.16,4.51c-0.26,1.61-0.05,3.3-0.05,4.95c0,9.74,0,19.47,0,29.21
		c-1.95,1.82-4.39,1.65-6.77,1.65c-60.31,0.01-120.62,0.01-180.93,0C7.7,101.09,5.26,101.27,3.31,99.45z"/>
	<path class="st3" d="M6.63,26.52c1.47-1.84,2.95-3.68,4.42-5.52c6.56-1.48,13.21-0.63,19.8-0.64c49.69-0.11,99.37-0.05,149.06-0.05
		c3.48,0,7.04-0.37,10.14,1.8c1.57,1.98,3.9,3.57,3.31,6.63c-5.28,2.78-11.09,2.42-16.65,2.11c-10.87-0.6-21.71-0.36-32.55,0
		c-4.62,0.15-9.18-0.44-13.79-0.45c-15.26-0.02-30.54,0.99-45.77,0.55c-23.74-0.68-47.48-0.25-71.22-0.56
		c-2.57-0.03-5.25-0.03-6.76-2.76C6.63,27.26,6.63,26.89,6.63,26.52z"/>
	<path class="st4" d="M6.63,27.62c1.49,1.28,3.28,1.11,5.06,1.11c20.59-0.01,41.18-0.03,61.78,0.03c1.89,0.01,4.02-0.87,5.65,1.03
		c0.24,0.27,1.07-0.03,1.61,0.05c1.67,0.25,3.05-0.49,4.52-1.08c1.65-0.67,2.67,1.67,4.5,1.11c2.17-0.66,4.31-1.65,6.7-1.15
		c1.52,0.31,3.25-0.62,4.61,0.97c0.32,0.38,1.7,0.44,2.05,0.1c1.88-1.83,4.15-0.98,6.21-1.01c8.46-0.11,16.92-0.09,25.37-0.01
		c1.71,0.02,3.54-0.69,5.14,0.98c0.73,0.77,2.18-1.52,3.37-0.03c4.14-1.81,8.38-1.19,12.59-0.41c1.35,0.25,2.35-0.72,3.74-0.66
		c4.77,0.21,9.56,0.06,14.34,0.1c1.03,0.01,2.15-0.42,3.05,0.63c0.84,0.97,2.28,0.73,3.07,0.38c4.37-1.96,8.93-0.61,13.37-1.03
		c0.22,1.35,1.6,1.81,2.21,2.86c0,1.26,0,2.51,0,3.77c-1.79,1.62-3.98,1.65-6.22,1.67c-38.79,0.31-77.59,0.02-116.38,0.12
		c-19.86,0.05-39.73,0.05-59.59,0c-3.08-0.01-6.32,0.48-8.97-1.79C5.16,32.78,5.89,30.2,6.63,27.62z"/>
	<path class="st5" d="M4.42,35.36c63.72,0,127.44,0,191.16,0c-0.13,1.6,0.06,3.12,1.1,4.42c-6.97,2.09-14.17,1.18-21.25,1.45
		c-16.88,0.64-33.79,0.11-50.68,0.06c-38.2-0.12-76.4,0.44-114.6,0.14c-2.43-0.02-4.78-0.2-6.84-1.64
		C4.36,38.48,4.55,36.96,4.42,35.36z"/>
	<path class="st6" d="M190.06,22.1c-58.09,0-116.18,0.01-174.27-0.07c-1.53,0-3.63,1.38-4.73-1.03c1.1-1.47,2.21-2.95,3.31-4.42
		c18.17-0.61,36.35-0.38,54.53-0.44c22.28-0.07,44.57-0.14,66.85,0.03c14.53,0.11,29.05-0.22,43.58-0.07
		c2.61,0.03,5.16,0.03,7.42,1.58C189.06,18.24,188.9,20.66,190.06,22.1z"/>
	<path class="st7" d="M3.31,39.78c22.04-0.24,44.09,0.49,66.12-0.41c0.28-0.01,0.54-0.46,0.88-0.77c1.49,0.18,2.67,1.31,4.44,1.27
		c8.28-0.2,16.57-0.07,24.85-0.11c1.2-0.01,2.31-0.16,3.57-0.72c2.08-0.92,4.79-0.9,6.88-0.02c1.24,0.52,2.34,0.73,3.55,0.74
		c4.79,0.04,9.57,0.01,14.36,0.02c1.26,0,2.58,0.2,3.06-1.32c3.15,1.93,6.21,1.71,9.09,0.84c1.46-0.44,2.44-0.88,3.86,0.13
		c0.75,0.53,2.15,0.06,3.13,0.39c2.13,0.72,4-1.12,6.34-0.19c1.91,0.75,4.36,0.15,6.57,0.15c2.39,0,4.79,0,7.18,0
		c1.68,0,3.41,0.22,4.93-0.79c1.32,1.59,3.1,0.68,4.65,0.72c1.71,0.05,3.51,0.6,5.16-0.93c0.63-0.58,2.58-0.61,3.05,1.05
		c1.88-0.18,3.27-2.35,5.09-0.57c2.29-1,4.35,0.99,6.6,0.52c-0.18,1.97,1.48,3.5,1.16,5.58c-0.28,1.78-0.06,3.64-0.06,5.47
		c-0.54,0.38-1.05,0.33-1.51-0.14c-0.71-0.94-0.94-2.06-1.17-3.18c-2-3.33-5.5-2.91-8.36-2.65c-9.74,0.9-19.47-0.46-29.13-0.04
		c-15.6,0.68-31.17-0.52-46.76,0.37c-8.58,0.49-17.21-0.13-25.82-0.36C76.07,44.6,67.09,45.48,58.11,45
		c-12.8-0.68-25.63,1.28-38.43-0.33c-5.1-0.64-10.24,0.78-15.34-0.23c-0.5-0.84-0.56-1.66,0.09-2.45
		C4.05,41.25,3.68,40.52,3.31,39.78z"/>
	<ellipse class="st8" cx="100.55" cy="101.1" rx="137.51" ry="2.34"/>
	<path class="st9" d="M83.98,56.35c-26.76,0-53.52,0-80.17,0c-0.83-1.15-0.34-2.27-0.49-3.31c1.98-1.79,4.44-1.55,6.81-1.55
		c60.28-0.02,120.56-0.02,180.84-0.01c2.39,0,4.82-0.12,6.83,1.56c0,0.92,0,1.83,0,2.79c-0.11,0.1-0.23,0.25-0.39,0.34
		c-0.14,0.09-0.32,0.17-0.48,0.17c-25.5,0.01-50.99,0.01-76.49,0.01c-3.91,2.4-8.19,0.85-12.29,1.15
		c-7.08,0.52-14.17-0.27-21.26,0.14C85.78,57.71,84.76,57.22,83.98,56.35z"/>
	<ellipse class="st8" cx="100.55" cy="150.83" rx="137.51" ry="2.34"/>
	<path class="st10" d="M43.09,3.31c35.65,0,71.3,0.05,106.95-0.05c6.62-0.02,12.97,1.68,19.48,2.29c0.66,0.06,0.83,1.23,1.75,1.08
		c0.76-0.03,1.13,0.34,1.1,1.1c-1.92,1.96-4.43,1.53-6.77,1.54c-29.43,0.17-58.85-0.08-88.28,0.09C63.92,9.45,50.51,9.19,37.1,9.25
		c-2.67,0.01-5.68,0.55-7.27-2.62c0-0.18-0.03-0.5,0-0.51c2.95-0.54,5.71-2.07,8.84-1.7C39.94,3.23,41.84,4.56,43.09,3.31z"/>
	<path class="st11" d="M19.89,12.15c0.27-1.2,1.01-1.94,2.21-2.21C36.18,8.95,50.27,9.5,64.35,9.3C85.78,9,107.2,9.87,128.63,9.02
		c13.88-0.55,27.8,1.06,41.69-0.19c2.3-0.21,4.23,1.22,6.47,1.11c0.34,0,0.78-0.14,1.02,0.02c1.53,1.06,3.01,2.19,4.51,3.29
		c-1.39,1.55-3.29,1.53-5.12,1.52c-49.5-0.13-99,0.39-148.5-0.26C25.62,14.48,22.44,14.37,19.89,12.15z"/>
	<path class="st12" d="M197.79,53.04c-64.83,0-129.65,0-194.48,0c0-0.74,0-1.47,0-2.21c0.57-0.48,1.2-0.86,1.89-1.14
		C22.09,48.7,39,49.3,55.89,49.28c43.93-0.07,87.86-0.06,131.79,0.01c3.05,0,6.31-0.74,9.01,1.54c0.37,0,0.74,0,1.1,0
		C197.79,51.57,197.79,52.3,197.79,53.04z"/>
	<path class="st13" d="M176.8,9.94c-0.49,2-2.04,1.29-2.96,0.82c-2.62-1.34-5.05-1.23-7.61,0.11c-1.08-1.51-3.13-1.41-4.31-0.79
		c-3.69,1.93-7.46,0.64-11.17,0.77c-0.58,0.02-1-0.68-2.01-0.08c-1.12,0.65-2.61,0.27-4.06-0.23c-3.25-1.13-6.6-1.06-10.13,0.59
		c-0.85,0.17-1.09-1.74-2.53-1.22c-1.29,0.47-2.72-0.26-4.17,0.68c-0.66,0.43-2.7-1.44-3.58-0.42c-1.43,1.64-2.53-1.36-3.51,0.07
		c-0.89,1.29-2.06-0.4-3.32,0.66c-1.17,0.98-3.41,0.2-4.73-1.14c-0.8,0.54-1.37,0.92-1.94,1.3c-2.67-1.81-6.06,1.99-8.53-1.1
		c-0.42,0.38-0.77,0.92-1.24,1.07c-2.06,0.66-3.99-0.96-6.31-0.13c-1.82,0.66-4.21,0.58-6.13-0.91c-1.17-0.9-2.23,1.37-3.65,0.38
		c-1.12-0.78-2.34-0.82-3.37,0.35c-0.58,0.66-1.4,0.15-2.06,0.35c-1.74,0.52-2.72-1.47-4.53-1.22c-1.28,0.18-2.35,1.17-4.12,0.25
		c-2.64-1.37-5.37,1.22-8.3,1.02c-2.66-0.18-5.46-2.53-7.69-0.99c-1.94,1.33-2.69-0.79-4.22-0.33c-1.13,0.34-2.55,1.81-4.07,0.2
		c-0.49-0.52-1.2,0.49-1.76,1c-0.38-0.34-0.76-0.68-1.15-1.02c-0.38,0.35-0.78,0.71-1.16,1.06c-1.37,0.68-1.62-1.32-2.88-1.12
		c-2.42,0.4-4.79,0.05-7.34,0.89c-2.95,0.97-6.5,0.14-9.79,0.04c-0.14,0-0.26-0.59-0.39-0.9c2.58-1.1,5.16-2.21,7.73-3.31
		c1.48,1.27,3.27,1.12,5.05,1.11c9.18-0.02,18.36,0,27.53-0.02c1.28,0,2.57-0.18,3.44,1.2c1.53-0.15,2.7-1.28,4.46-1.27
		c24.41,0.13,48.83,0.09,73.24,0.07c1.13,0,2.17,0.04,2.86,1.15c0.26-0.27,0.49-0.75,0.77-0.77c8.39-0.75,16.79-0.18,25.19-0.36
		C174.26,7.65,175.68,8.5,176.8,9.94z"/>
	<path class="st14" d="M186.74,17.68c-11.95,0-23.89-0.01-35.84,0.01c-1.76,0-3.61-0.38-4.92,1.24c-1.35-0.87-2.56-1.3-4.09-1.3
		c-31.25,0.07-62.49,0.07-93.74,0c-1.54,0-2.73,0.45-3.81,1.12c-4.64-2.06-9.4-0.68-14.03-1.03c-1.55-0.12-3.28-0.45-4.49,1.07
		c-2.82-1.67-5.93-0.91-8.92-1.14c-0.9-0.07-2.33,0.77-2.53-1.07c0.76,0.03,1.13-0.34,1.1-1.1c2.28-1.4,4.81-1.72,7.42-1.62
		c29.35,1.14,58.71,0.27,88.07,0.49c20.9,0.16,41.8-0.14,62.7,0.07c3.26,0.03,6.51-0.61,9.77-0.05
		C184.98,15.02,186.09,16.12,186.74,17.68z"/>
	<path class="st15" d="M183.43,14.36c-1.72-0.52-2.75,1.44-4.51,1.16c-1.61-0.26-3.3-0.05-4.95-0.05c-4.59,0-9.18-0.05-13.77,0.03
		c-1.19,0.02-2.08-0.31-2.86-1.16c-1.48-0.24-2.18,1.53-3.96,1.22c-4.4-0.77-9.02,0.88-13.39-0.99c-1.68,1.25-3.64,0.88-5.51,0.88
		c-20.02,0.01-40.03-0.06-60.05,0.1c-2.45,0.02-4.74-0.97-7.39-0.25c-2.74,0.74-5.83,0.16-8.77,0.16c-2.75,0-5.52,0.18-8.26-0.05
		c-2.65-0.22-5.17,0.75-7.93,0.19c-3-0.61-6.22-0.14-9.34-0.14c-2.94,0-5.88,0.08-8.81-0.03c-1.54-0.06-3.34,0.74-4.53-1.01
		c-1.01,1.45-2.54,0.99-3.93,1.05c0.43-1.55,1.41-2.32,3.05-2.22c0.75,0.05,1.44-0.07,1.36-1.1c2.47,0.04,5-0.33,7.25,1.1
		c2.82-1.34,5.63,0.1,8.45,0.09c23.69-0.15,47.38-0.08,71.07-0.09c2.37,0,4.88-0.67,7.03-0.4c2.51,0.31,5,0.21,7.48,0.37
		c2.56,0.16,5.14,0.04,7.71,0.04c2.57,0,5.14,0,7.71,0c2.57,0,5.14,0,7.71,0c2.39,0,4.77,0,7.16,0c2.57,0,5.14,0,7.71,0
		s5.14,0,7.71,0s5.14,0,7.71,0c2.57,0,5.14,0,7.71,0C183.09,13.23,183.45,13.6,183.43,14.36z"/>
	<path class="st16" d="M83.98,56.35c12.15,0,24.31,0,36.46,0c0.01,1.51,1.17,1.08,1.97,1.09c5.68,0.03,11.36,0.02,17.04,0.02
		c17.77,0,35.55,0,53.32,0c1.61,0,3.22,0,4.81,0c0.04,1.43,1.17,2.85-0.89,3.31c0-0.55,0-1.09,0-1.73
		c-1.45-0.93-3.11-0.34-4.67-0.45c-0.54-0.04-0.98,0.39-0.86,1.07c-1.1,0.3-2.21,0.15-3.31,0c-1.8-1.59-3.72-1.59-5.52,0
		c-1.47,0.75-2.95,0.75-4.42,0c-1.8-1.59-3.72-1.59-5.52,0c-1.1,0.3-2.21,0.15-3.31,0c-1.8-1.59-3.72-1.59-5.52,0
		c-1.47,0.75-2.95,0.75-4.42,0c-1.8-1.59-3.72-1.59-5.52,0c-1.1,0.3-2.21,0.15-3.31,0c-1.8-1.59-3.72-1.59-5.52,0
		c-1.47,0.75-2.95,0.75-4.42,0c-1.8-1.59-3.72-1.59-5.52,0c-1.1,0.3-2.21,0.15-3.31,0c-1.8-1.59-3.72-1.59-5.52,0
		c-1.47,0.75-2.95,0.75-4.42,0c-1.8-1.59-3.72-1.59-5.52,0c-1.1,0.31-2.21,0.15-3.31,0c-1.8-1.59-3.72-1.59-5.52,0
		c-1.47,0.75-2.95,0.75-4.42,0c-1.8-1.59-3.72-1.59-5.52,0c-1.1,0.31-2.21,0.15-3.31,0c-1.8-1.59-3.72-1.59-5.52,0
		c-1.47,0.75-2.95,0.75-4.42,0c-1.8-1.59-3.72-1.59-5.52,0c-1.1,0.3-2.21,0.15-3.31,0c-1.8-1.59-3.72-1.59-5.52,0
		c-1.47,0.75-2.95,0.75-4.42,0c-1.8-1.59-3.72-1.59-5.52,0c-1.1,0.3-2.21,0.15-3.31,0c-1.8-1.59-3.72-1.59-5.52,0
		c-1.47,0.75-2.95,0.75-4.42,0c-1.8-1.59-3.72-1.59-5.52,0c-1.1,0.3-2.21,0.15-3.31,0c-1.8-1.59-3.72-1.59-5.52,0
		c-1.47,0.75-2.95,0.75-4.42,0c-1.8-1.59-3.72-1.59-5.52,0c-1.1,0.3-2.21,0.15-3.31,0c-1.8-1.59-3.72-1.59-5.52,0
		c-1.47,0.75-2.95,0.75-4.42,0c0.07-0.98-0.57-1.11-1.32-1.11c-1.4,0-2.8,0-4.2,0c0.02-1.52,1.18-1.08,1.98-1.09
		c4.6-0.03,9.2-0.02,13.8-0.02c20.6,0,41.2,0.02,61.81-0.05C81.91,57.4,83.59,58.5,83.98,56.35z"/>
	<path class="st4" d="M4.42,50.83c-0.37,0-0.74,0-1.1,0c0-2.49,0-4.99,0-7.48c0-0.75,0.09-1.43,1.1-1.36c0,0.74,0,1.47,0,2.21
		c0.57,0.6,0.98,1.28,1.14,2.1c0.17,1.09,0.13,2.16-0.21,3.21C5.1,49.99,4.79,50.43,4.42,50.83z"/>
	<path class="st17" d="M27.62,59.67c0.72-0.39,1.45-0.78,2.21-1.2c0.76,0.41,1.49,0.8,2.21,1.2c0,0.91,0,1.82,0,2.81
		c-1.27,0.91-2.68,0.45-4.03,0.38C27.3,61.82,27.76,60.71,27.62,59.67z"/>
	<path class="st17" d="M46.41,59.67c0.72-0.39,1.45-0.78,2.21-1.2c0.76,0.41,1.49,0.8,2.21,1.2c0,0.91,0,1.82,0,2.81
		c-1.27,0.91-2.68,0.45-4.03,0.38C46.08,61.82,46.55,60.71,46.41,59.67z"/>
	<path class="st17" d="M65.19,59.67c0.72-0.39,1.45-0.78,2.21-1.2c0.76,0.41,1.49,0.8,2.21,1.2c0,0.91,0,1.82,0,2.81
		c-1.27,0.91-2.68,0.45-4.03,0.38C64.87,61.82,65.33,60.71,65.19,59.67z"/>
	<path class="st17" d="M102.76,59.67c0.72-0.39,1.45-0.78,2.21-1.2c0.76,0.41,1.49,0.8,2.21,1.2c0,0.91,0,1.82,0,2.81
		c-1.27,0.91-2.68,0.45-4.03,0.38C102.44,61.82,102.9,60.71,102.76,59.67z"/>
	<path class="st17" d="M121.55,59.67c0.72-0.39,1.45-0.78,2.21-1.2c0.76,0.41,1.49,0.8,2.21,1.2c0,0.91,0,1.82,0,2.81
		c-1.27,0.91-2.68,0.45-4.03,0.38C121.22,61.82,121.69,60.71,121.55,59.67z"/>
	<path class="st17" d="M140.33,59.67c0.72-0.39,1.45-0.78,2.21-1.2c0.76,0.41,1.49,0.8,2.21,1.2c0,0.91,0,1.82,0,2.81
		c-1.27,0.91-2.68,0.45-4.03,0.38C140.01,61.82,140.47,60.71,140.33,59.67z"/>
	<path class="st18" d="M177.9,59.67c0.72-0.39,1.45-0.78,2.21-1.2c0.76,0.41,1.49,0.8,2.21,1.2c0,0.91,0,1.82,0,2.81
		c-1.27,0.91-2.68,0.45-4.03,0.38C177.57,61.82,178.04,60.71,177.9,59.67z"/>
	<path class="st17" d="M159.12,59.67c0.72-0.39,1.45-0.78,2.21-1.2c0.76,0.41,1.49,0.8,2.21,1.2c0,0.91,0,1.82,0,2.81
		c-1.27,0.91-2.68,0.45-4.03,0.38C158.79,61.82,159.25,60.71,159.12,59.67z"/>
	<path class="st17" d="M8.84,59.67c0.72-0.39,1.45-0.78,2.21-1.2c0.76,0.41,1.49,0.8,2.21,1.2c0,0.91,0,1.82,0,2.81
		c-1.27,0.91-2.68,0.45-4.03,0.38C8.51,61.82,8.98,60.71,8.84,59.67z"/>
	<path class="st17" d="M83.98,59.67c0.72-0.39,1.45-0.78,2.21-1.2c0.76,0.41,1.49,0.8,2.21,1.2c0,0.91,0,1.82,0,2.81
		c-1.27,0.91-2.68,0.45-4.03,0.38C83.65,61.82,84.12,60.71,83.98,59.67z"/>
	<path class="st19" d="M112.71,59.67c0.89,0.14,1.1-0.75,1.66-1.09c0.56,0.34,0.77,1.23,1.66,1.09c0,1.02,0,2.05,0,3.19
		c-1.51,0-2.71,0-4.03,0C111.76,61.75,110.66,60.42,112.71,59.67z"/>
	<path class="st20" d="M56.35,59.67c0.89,0.14,1.1-0.75,1.66-1.09c0.56,0.34,0.77,1.23,1.66,1.09c0,1.02,0,2.05,0,3.19
		c-1.51,0-2.71,0-4.03,0C55.41,61.75,54.3,60.42,56.35,59.67z"/>
	<path class="st19" d="M131.49,59.67c0.89,0.14,1.1-0.75,1.66-1.09c0.56,0.34,0.77,1.23,1.66,1.09c0,1.02,0,2.05,0,3.19
		c-1.51,0-2.71,0-4.03,0C130.55,61.75,129.44,60.42,131.49,59.67z"/>
	<path class="st20" d="M37.57,59.67c0.89,0.14,1.1-0.75,1.66-1.09c0.56,0.34,0.77,1.23,1.66,1.09c0,1.02,0,2.05,0,3.19
		c-1.51,0-2.71,0-4.03,0C36.62,61.75,35.52,60.42,37.57,59.67z"/>
	<path class="st19" d="M150.28,59.67c0.89,0.14,1.1-0.75,1.66-1.09c0.56,0.34,0.77,1.23,1.66,1.09c0,1.03,0,2.07,0,3.19
		c-1.51,0-2.71,0-4.03,0C149.33,61.75,148.22,60.42,150.28,59.67z"/>
	<path class="st19" d="M169.06,59.67c0.89,0.14,1.1-0.75,1.66-1.09c0.56,0.34,0.77,1.23,1.66,1.09c0,1.03,0,2.07,0,3.19
		c-1.51,0-2.71,0-4.03,0C168.11,61.75,167.01,60.42,169.06,59.67z"/>
	<path class="st19" d="M75.14,59.67c0.89,0.14,1.1-0.75,1.66-1.09c0.56,0.34,0.77,1.23,1.66,1.09c0,1.02,0,2.05,0,3.19
		c-1.51,0-2.71,0-4.03,0C74.19,61.75,73.09,60.42,75.14,59.67z"/>
	<path class="st19" d="M187.85,59.67c0.89,0.14,1.1-0.75,1.66-1.09c0.56,0.34,0.77,1.23,1.66,1.09c0,1.03,0,2.07,0,3.19
		c-1.51,0-2.71,0-4.03,0C186.9,61.75,185.79,60.42,187.85,59.67z"/>
	<path class="st19" d="M93.92,59.67c0.89,0.14,1.1-0.75,1.66-1.09c0.56,0.34,0.77,1.23,1.66,1.09c0,1.02,0,2.05,0,3.19
		c-1.51,0-2.71,0-4.03,0C92.98,61.75,91.87,60.42,93.92,59.67z"/>
	<path class="st20" d="M18.78,59.67c0.89,0.14,1.1-0.75,1.66-1.09c0.56,0.34,0.77,1.23,1.66,1.09c0,1.02,0,2.05,0,3.19
		c-1.51,0-2.71,0-4.03,0C17.84,61.75,16.73,60.42,18.78,59.67z"/>
	<path class="st21" d="M4.42,46.41c0-0.74,0-1.47,0-2.21c5.81-1.95,11.82-0.8,17.74-1.1c1.46,1.4,3.31,0.98,5.05,1.14
		c1.1,0.1,1.51-0.82,2.37-1.19c1.42,0.48,2.91,1.92,4.39,1.07c1.91-1.1,4.05,0.67,5.9-0.95c0.79-0.69,2.01,0.22,2.84,1.1
		c2.95-1.41,6.12-1.9,9.15-0.56c1.31,0.58,2.57,0.65,3.63,0.37c1.13-0.29,2.44-1.68,3.34-0.89c1.12,0.99,2.44-0.26,2.78,0.34
		c0.89,1.53,1.98-1.42,2.96,0.39c0.42,0.78,2.66,0.75,3.49,0c1.18-1.07,2.44-0.46,3.54-0.88c2.42-0.92,4.3,2.29,6.58,0.81
		c2.06-1.34,4.21-0.53,6.31-0.72c0.84-0.07,1.79-0.39,2.61,0.31c2.04,1.73,3.94,0.58,5.96-0.41c0.51,0.36,1.07,0.76,1.63,1.16
		c0.56,0.05,0.97-0.18,1.45-0.51c1.62-1.13,3.78-1.11,5.08-0.24c1.64,1.1,3.28,0.18,4.65,0.83c1.49,0.7,2.46-1.95,4.18-0.17
		c1,1.04,2.55-0.56,3.86-0.97c0.67-0.21,1.9-0.33,2.12,0.01c1.69,2.56,4.16-0.53,5.92,0.92c3.92-1.57,7.8-1.57,11.73,0.1
		c1.03,0.44,2.08-0.12,2.8-1.01c0.41,0.36,0.81,0.72,1.19,1.07c1.5,0.14,2.43-2.12,3.96-1.07c1.03,0.71,2.13,0.02,2.81,0.35
		c2.11,1,3.93,0.86,6.04,0.02c2.73-1.07,9.14-0.49,11.67,0.77c1.78-0.55,3.67-2.38,5.74-0.63c0.84,0.71,1.71,0.63,2.54,0.51
		c1.89-0.29,3.82,0.68,5.74-0.85c1.77-1.41,3.39,1.35,5.5,0.99c1.57-0.27,2.63-1.85,4.5-1.26c1.8,0.57,3.86-0.65,5.68,1.06
		c0.73,0.69,2.37,0.16,3.22-0.88c1.84,0.96,1.64,2.65,1.61,4.29c-1.13,1.26-2.4,2.25-4.21,2.15c-6.52-0.34-13.08,0.73-19.57-0.49
		c-7.4-1.8-14.92-0.39-22.38-0.78c-0.98,0.17-1.97,0.2-2.96,0.02c-1.57-0.51-3.15-0.46-4.73-0.03c-0.46,0.07-0.91,0.08-1.37,0.06
		c-1.82-0.33-3.61,0.15-5.42,0.25c-0.46,0.03-0.93,0-1.39-0.04c-1.59-0.24-3.18-0.7-4.81-0.17c-0.49,0.12-0.98,0.19-1.48,0.23
		c-6.95-0.38-13.9-1.23-20.86,0.05c-0.55,0.09-1.09,0.13-1.64,0.15c-1.41,0.03-2.81,0.03-4.21,0.01c-0.57,0.01-1.14-0.04-1.71-0.13
		c-2.3-0.52-4.6-1.16-7-0.81c-10.27,1.5-20.56,0.03-30.84,0.15c-1.48,0.02-2.88,0.23-4.3,0.48c-0.85,0.13-1.71,0.14-2.56,0.08
		c-5.83,0.37-11.66-0.25-17.5-0.1c-0.87,0.09-1.73,0.06-2.59-0.05c-7.39-0.54-14.76-1.17-22.15,0.13
		C9.87,49.23,6.85,48.81,4.42,46.41z"/>
	<path class="st22" d="M172.38,47.51c1.18,0.18,1.91,1.29,3.36,1.18c3.07-0.24,6.17-0.12,9.25-0.05c1.02,0.02,1.74-0.28,2.18-1.1
		c3.24,2.34,6.38,0.63,9.52-0.03c0,1.1,0,2.21,0,3.31c-64.09,0-128.18,0-192.27,0c0-0.37,0-0.74,0-1.1
		c6.27-2.72,12.92-1.87,19.43-1.91c3.84-0.02,7.69,0.51,11.51-0.3c0.74,0,1.47,0,2.21,0c5.89,0.19,11.79,2.03,17.68,0
		c0.74,0,1.47,0,2.21,0c14.36,0.89,28.73,0.72,43.09,0c0.37,0,0.74,0,1.1,0c1.47,0.88,2.95,0.88,4.42,0c0.37,0,0.74,0,1.1,0
		c7.37,0.72,14.73,0.6,22.1,0c0.37,0,0.74,0,1.1,0c1.47-0.26,2.95,1.33,4.42,0c0.37,0,0.74,0,1.1,0c1.84,1.56,3.68,0.27,5.52,0
		c0.37,0,0.74,0,1.1,0c1.47,0.77,2.95,0.04,4.42,0c1.1,0,2.21,0,3.31,0C157.64,48.28,165.01,48.55,172.38,47.51z"/>
	<path class="st23" d="M35.36,47.51c-3.58,2.14-6.15,3.08-8.45,1.9c-2.66-1.37-5.19-0.55-7.78-0.59c-0.56,2.01-1.82-0.96-2.77,0.44
		c-0.92,1.35-1.76-0.46-2.59-0.55c-1.54-0.17-3.37-0.73-4.71,0.32c-1.53,1.2-3.12,0.39-4.65,0.69c0-1.1,0-2.21,0-3.31
		c1.04,0.19,2.15-0.4,3.13,0.36c1.93,1.51,4.7,1.35,6.15,0.55c3.23-1.77,6.38-0.67,9.5-0.74c1.13-0.03,2.2,0.28,3.48-0.07
		c1.52-0.41,3.98-0.72,4.72,0.1c1.57,1.77,2.48-1.25,3.56-0.02C35.17,46.83,35.23,47.2,35.36,47.51z"/>
	<path class="st23" d="M100.55,47.51c-0.01,1.5-1.15,1.04-1.95,1.1c-1.9,0.15-3.97-0.57-5.56,1.12c-2.61-1.32-5.3-1.83-8.02-0.45
		c-1.26,0.64-2.15,0.53-3.41-0.16c-2.15-1.18-4.39-0.65-6.47,0.63c-1.19-0.69-2.33-1.32-3.89-1.19c-1.58,0.13-3.41,2.42-4.28,1.03
		c-1.48-2.37-2.95,0.57-4.46-0.64c-1.03-0.82-3.08-0.35-4.66-0.53c-0.16-0.02-0.26-0.58-0.39-0.9c2.07-1.05,4.14-2.13,6.36,0.15
		c2.46-1.62,5.25-1.91,7.91-0.67c1.1,0.51,2.1,0.22,3.07,0.55c1.79,0.61,2.85-1.49,4.48-1.11c1.49,0.35,2.86,0.99,4.46,1.21
		c2.32,0.32,4.34-2.16,6.64-0.45C95.55,46.26,95.55,46.26,100.55,47.51z"/>
	<path class="st23" d="M172.38,47.51c-1.03,0.61-4.38,1.48-5.6,1.6c-1.5,0.14-2.84,0.53-4.42-0.37c-1.01-0.58-2.84-0.57-3.81,0.93
		c-0.4-0.36-0.8-0.72-1.11-1.01c-1.22-0.41-1.59,0.75-2.75,1.22c-0.94-1.51-3.33-0.53-4.4-2.37c0.19-1.84,1.73-1.2,2.5-1.01
		c0.94,0.23,1.72,0.92,2.85,1.1c1.8,0.3,2.78-1.34,4.51-1.31c1.71,0.02,2.79,1.79,4.49,1.2c0.79-0.27,1.51-0.76,2.07-1.05
		c1.27-0.22,1.41,1.44,2.53,1.07C170.27,47.41,171.32,44.89,172.38,47.51z"/>
	<path class="st23" d="M129.28,47.51c0,0.18,0.05,0.5-0.01,0.52c-0.85,0.28-9.58,0.87-10.31,0.77c-2.61-0.35-5.22-0.63-7.56,1.07
		c-1.66-0.47-3.3-0.73-4.22-2.37c0.68-0.15,1.36,0.21,2.07-0.36c1.81-1.44,3.62-1.17,5.53,0.58c2.03-1.57,4.31-2.06,6.53-0.23
		c0.94,0.18,1.3-0.58,2.11-1.27C125.04,47.68,127.17,47.56,129.28,47.51z"/>
	<path class="st23" d="M55.25,47.51c-0.02,2.14-3.02,0.13-2.71,2.13c-1.23,0.25-1.64-0.83-2.12-0.82
		c-1.7,0.06-11.41-0.34-12.83-0.79c-0.05-0.02-0.01-0.34-0.01-0.52c1.51-0.56,2.6-1.3,4.72-0.55c3.34,1.18,7.23,1.37,10.79-0.6
		C53.77,46.73,54.51,47.12,55.25,47.51z"/>
	<path class="st23" d="M146.96,47.51c0.06,1.08-1.06,1.31-1.54,2.2c-0.45-1.52-2.74-0.31-2.88-2.2c1.19-0.47,2.17-1.66,3.66-1.1
		C146.69,46.6,147.08,46.89,146.96,47.51z"/>
	<path class="st23" d="M141.44,47.51c-0.2,2.53-3.36-0.36-3.42,2.15c-1.21-0.49-1.89-1.1-2.1-2.15c1.36-0.09,2.9,0.47,3.83-1.07
		C140.35,46.74,140.54,47.67,141.44,47.51z"/>
	<path class="st23" d="M134.81,47.51c-1.4,1.49-3.02,1.49-4.42,0c0.29-1.56,1.24-1.45,2.08-0.61
		C133.21,47.63,133.99,47.48,134.81,47.51z"/>
	<path class="st23" d="M106.08,47.51c-1.4,1.49-3.02,1.49-4.42,0C103.13,47.51,104.6,47.51,106.08,47.51z"/>
</g>
<path class="st24" d="M149.25,198.5h-98.5c-27.2,0-49.25-22.05-49.25-49.25v-98.5C1.5,23.55,23.55,1.5,50.75,1.5h98.5
	c27.2,0,49.25,22.05,49.25,49.25v98.5C198.5,176.45,176.45,198.5,149.25,198.5z"/>
<rect x="9.5" y="72.5" class="st25" width="17" height="17"/>
<rect x="9.5" y="117.5" class="st25" width="17" height="17"/>
</svg>
