<?xml version="1.0" encoding="UTF-8"?>
<!DOCTYPE svg PUBLIC "-//W3C//DTD SVG 1.1//EN" "http://www.w3.org/Graphics/SVG/1.1/DTD/svg11.dtd">
<!-- Creator: CorelDRAW 2021 (64 位元 評估版本) -->
<svg xmlns="http://www.w3.org/2000/svg" xml:space="preserve" width="800px" height="300px" version="1.1" style="shape-rendering:geometricPrecision; text-rendering:geometricPrecision; image-rendering:optimizeQuality; fill-rule:evenodd; clip-rule:evenodd"
viewBox="0 0 800 300"
 xmlns:xlink="http://www.w3.org/1999/xlink"
 xmlns:xodm="http://www.corel.com/coreldraw/odm/2003">
 <defs>
  <style type="text/css">
   <![CDATA[
    .fil1 {fill:#6B696B}
    .fil8 {fill:#C60000}
    .fil0 {fill:url(#id0)}
    .fil5 {fill:url(#id1)}
    .fil6 {fill:url(#id2)}
    .fil2 {fill:url(#id3)}
    .fil3 {fill:url(#id4)}
    .fil4 {fill:url(#id5)}
    .fil7 {fill:url(#id6)}
   ]]>
  </style>
  <linearGradient id="id0" gradientUnits="userSpaceOnUse" x1="602.21" y1="107.47" x2="618.11" y2="107.47">
   <stop offset="0" style="stop-opacity:1; stop-color:#7BDB84"/>
   <stop offset="0.509804" style="stop-opacity:1; stop-color:#007D08"/>
   <stop offset="1" style="stop-opacity:1; stop-color:#085108"/>
  </linearGradient>
  <radialGradient id="id1" gradientUnits="userSpaceOnUse" gradientTransform="matrix(1.03631 -0 -0 1.03633 -4 -4)" cx="118.14" cy="111.57" r="132.27" fx="118.14" fy="111.57">
   <stop offset="0" style="stop-opacity:1; stop-color:#5A8AEF"/>
   <stop offset="0.25098" style="stop-opacity:1; stop-color:#0B2C78"/>
   <stop offset="0.588235" style="stop-opacity:1; stop-color:#1849B5"/>
   <stop offset="0.729412" style="stop-opacity:1; stop-color:#5A8AEF"/>
   <stop offset="1" style="stop-opacity:1; stop-color:#0B2C78"/>
  </radialGradient>
  <radialGradient id="id2" gradientUnits="userSpaceOnUse" gradientTransform="matrix(1.04842 -0 -0 1.04842 -25 -6)" cx="524.11" cy="127.8" r="83.47" fx="524.11" fy="127.8">
   <stop offset="0" style="stop-opacity:1; stop-color:#5A8AEF"/>
   <stop offset="0.2" style="stop-opacity:1; stop-color:#0B2C78"/>
   <stop offset="0.470588" style="stop-opacity:1; stop-color:#5A8AEF"/>
   <stop offset="0.690196" style="stop-opacity:1; stop-color:#1849B5"/>
   <stop offset="1" style="stop-opacity:1; stop-color:#0B2C78"/>
  </radialGradient>
  <radialGradient id="id3" gradientUnits="userSpaceOnUse" gradientTransform="matrix(1.02278 -0 -0 1.05695 -6 -8)" cx="266.26" cy="140.13" r="89.25" fx="266.26" fy="140.13">
   <stop offset="0" style="stop-opacity:1; stop-color:white"/>
   <stop offset="0" style="stop-opacity:1; stop-color:#FF5B45"/>
   <stop offset="0.25098" style="stop-opacity:1; stop-color:#520B03"/>
   <stop offset="0.470588" style="stop-opacity:1; stop-color:#B31500"/>
   <stop offset="0.588235" style="stop-opacity:1; stop-color:#B31500"/>
   <stop offset="0.729412" style="stop-opacity:1; stop-color:#FF5B45"/>
   <stop offset="1" style="stop-opacity:1; stop-color:#520B03"/>
  </radialGradient>
  <radialGradient id="id4" gradientUnits="userSpaceOnUse" gradientTransform="matrix(1.04681 -0 -0 1.06914 -19 -10)" cx="399.81" cy="140.13" r="89.25" fx="399.81" fy="140.13">
   <stop offset="0" style="stop-opacity:1; stop-color:#FFEF08"/>
   <stop offset="0.25098" style="stop-opacity:1; stop-color:#614F00"/>
   <stop offset="0.411765" style="stop-opacity:1; stop-color:#B28C00"/>
   <stop offset="0.611765" style="stop-opacity:1; stop-color:#B58E00"/>
   <stop offset="0.729412" style="stop-opacity:1; stop-color:#F1E107"/>
   <stop offset="1" style="stop-opacity:1; stop-color:#614F00"/>
  </radialGradient>
  <radialGradient id="id5" gradientUnits="userSpaceOnUse" gradientTransform="matrix(1.3571 -0 -0 1.35709 -258 -46)" cx="722.3" cy="127.65" r="65.49" fx="722.3" fy="127.65">
   <stop offset="0" style="stop-opacity:1; stop-color:#FF5B45"/>
   <stop offset="0.0196078" style="stop-opacity:1; stop-color:#520B03"/>
   <stop offset="0.470588" style="stop-opacity:1; stop-color:#B31500"/>
   <stop offset="0.588235" style="stop-opacity:1; stop-color:#B31500"/>
   <stop offset="0.729412" style="stop-opacity:1; stop-color:#FF5B45"/>
   <stop offset="1" style="stop-opacity:1; stop-color:#520B03"/>
  </radialGradient>
  <radialGradient id="id6" gradientUnits="userSpaceOnUse" gradientTransform="matrix(1.23807 -0 -0 1.23807 -124 -54)" xlink:href="#id2" cx="520.93" cy="228.38" r="89.74" fx="520.93" fy="228.38">
  </radialGradient>
 </defs>
 <g id="Layer_x0020_1">
  <metadata id="CorelCorpID_0Corel-Layer"/>
  <path class="fil0" d="M598.89 25.73c11.44,0 22.2,0 33.63,0 -4.68,3.03 -6.25,4.29 -8.26,7.48 -1.44,2.28 -1.81,6.61 -2.07,10.51 -1.97,44.91 -0.76,90.15 -1.05,135.06 0.18,12.24 4.99,10.8 20.91,10.33 -2.4,2.04 -6.29,6.06 -9.31,7.79 -14.35,0 -28.07,-0.31 -42.42,-0.31 5.41,-5.59 8.18,-9.19 7.81,-23.15 0.29,-46.93 -1.57,-91.97 1.29,-137.16 -6.73,0.19 -12.85,0.09 -19.58,0.29 6.35,-3.28 12.37,-7.9 19.05,-10.84z"/>
  <path class="fil1" d="M744.8 83.89c1.55,0 10.4,0 11.95,0l-0.8 2.2c-0.27,0.12 -0.54,0.23 -0.81,0.34 0.16,-0.81 0.45,-1.41 -0.17,-1.58l-2.8 0.01c-0.16,2.68 -0.27,7.59 -0.27,11.13 -0.14,1.16 1.14,1.09 2.45,1.35l-1.14 0.66c-1.95,0 -3.88,-0.04 -5.83,-0.04 0.93,-0.49 1.06,-1.25 1.01,-3.14 -0.06,-3.16 0.05,-7.21 0.22,-9.99 -0.94,-0.02 -1.77,0.01 -2.68,0.04 -0.42,0.05 -0.74,0.47 -1.03,1.21l-0.89 0.37 0.79 -2.56z"/>
  <path class="fil2" d="M271.19 84.43c39.05,0 59.42,25.66 61.24,55.71 1.81,29.95 -23.17,56.74 -53.74,59.95 -36.77,3.85 -68.87,-21.18 -68.87,-57.68 0,-31.93 27.57,-57.98 61.37,-57.98zm36.9 59.57c2.24,22.02 -5.24,42.48 -25.23,47.05 -20.47,4.68 -42.16,-12.1 -47.58,-40.6 -5.94,-31.27 3.88,-51.85 23.2,-56.92 22.88,-5.99 46.2,16.84 49.61,50.47z"/>
  <path class="fil3" d="M403.47 84.43c38.59,0 58.72,25.66 60.52,55.71 1.79,29.95 -22.9,56.74 -53.12,59.95 -36.33,3.85 -68.06,-21.18 -68.06,-57.68 0,-31.93 27.25,-57.98 60.66,-57.98zm36.47 59.57c2.21,22.02 -5.18,42.48 -24.94,47.05 -20.23,4.68 -41.66,-12.1 -47.02,-40.6 -5.87,-31.27 3.83,-51.85 22.92,-56.92 22.62,-5.99 45.66,16.84 49.04,50.47z"/>
  <path class="fil4" d="M737.57 118.06c3.76,-1.56 4.06,-1.83 2.67,-5.8 -7.94,-22.68 -37.85,-34.93 -63.33,-24.3 -20.09,8.38 -34.63,29.62 -34.63,53.38 0,32.02 23.1,60.48 54.49,60.48 14.4,0 24.63,-1.98 33.74,-7.76 1.95,-1.82 12.96,-10.62 13.06,-12.51 0.03,-0.43 -1.54,0.94 -3.94,2.26 -7.09,3.73 -17.73,5.16 -26.06,5.31 -16.88,0.31 -30.36,-11.19 -39.15,-24.84 -5.65,-8.78 -9.31,-18.83 -10.22,-29.61 -1.39,-16.58 2.66,-35.65 21.38,-40.33 12.46,-3.11 24.26,3.87 28.85,15.87 2.08,5.44 0.82,8.27 -4.21,10.35l-45.05 18.82 15.36 0.98c18.29,-7.59 38.75,-14.71 57.04,-22.3z"/>
  <path class="fil5" d="M174.16 68.37l17.55 -17.9c-29.79,-24.66 -80.9,-27.9 -114.76,-10.77 -29.45,14.89 -50.86,44.46 -51.91,77.49 -1.1,34.77 19.1,62.26 39.61,76.09 33.84,22.83 92.52,17.74 127.87,-0.1l-0.01 -3.31 0 0 0 -36.44 8.23 -9.63 -51.49 0 -19.07 10.74 37.04 -1.11c0,10.38 0,21.74 0,32.11 0,4.56 0.05,5.29 -7.45,7.72 -10.57,2.78 -22.5,3.32 -33.4,2.41 -36.99,-3.08 -65.18,-32.3 -71.85,-68.76 -6.34,-34.58 9.97,-67.29 37.54,-80.79 13.47,-6.6 29.62,-9.69 47.14,-4.09 10.97,3.52 20.94,9.85 29.63,18.57l-6.05 11.01 11.38 -3.24z"/>
  <path class="fil6" d="M553.24 162.35l-30.45 10.88c1.13,-1.99 0.41,-1.31 -1.73,-0.98 -19.69,2.97 -39.96,-9.88 -44.71,-29.3 -2.4,-9.85 -0.91,-20.15 2.84,-28.21 8.15,-17.5 26.28,-27.23 46.39,-27.23 20.92,0 40.29,0.01 60.8,0.17l-14.38 9.31 -16.37 0c6.91,4.83 12.21,11.79 15.13,19.54 3.11,8.25 3.54,17.41 0.38,25.83 -2.98,7.95 -9.02,14.79 -17.9,19.99zm-3.06 -31.98c2.57,15.55 -1.39,30.29 -15.44,34.17 -14.38,3.98 -30.29,-7.21 -35.4,-27.24 -5.61,-21.97 0.19,-35.92 13.74,-40.13 16.04,-5 33.19,9.48 37.1,33.2z"/>
  <path class="fil7" d="M522.79 173.23l30.45 -10.88c-5.05,2.96 -7.6,6.71 -7.88,10.3 -0.82,10.49 12,18.11 19.41,23.66 16.22,12.14 22.54,32.06 11.82,51.3 -10.25,18.37 -34.67,26.56 -60.59,26.66 -32.21,-0.15 -52.53,-14.9 -53.6,-34.99 -1.38,-25.96 25.25,-38.31 49.32,-41.13 6.74,-0.79 12.76,-0.66 18.42,-0.26 -8.51,-5.6 -11.7,-17.03 -7.35,-24.66zm15.31 31.35c2.42,1.77 4.95,3.49 7.54,5.13 14.13,8.95 18.63,19.89 17.48,29.99 -1.38,12.17 -13.06,21.76 -33.06,22.98 -21.35,1.3 -50.1,-7.16 -44.77,-35.24 2.83,-14.97 22.68,-22.69 39.1,-23.24 4.54,-0.15 9.17,0.23 13.71,0.38z"/>
  <path class="fil1" d="M757.23 83.89c0.26,0 0.51,0 0.76,0l0 0 3.04 0c0.74,0 0.79,0.36 1.04,1.05 1.05,2.92 3.45,10.08 3.47,10.04 0.99,-2.71 2.51,-6.73 3.67,-9.52 0,-0.31 -0.32,-0.34 -0.73,-0.32 -0.55,0 -1.09,0 -1.63,0 0.01,0 0.02,-0.01 0.03,-0.02 -0.02,0 -0.03,0.01 -0.05,0.02 0.17,-0.13 0.34,-0.25 0.51,-0.38 0.38,-0.29 0.76,-0.58 1.14,-0.87 0.02,0 0.04,0 0.06,0 0,0 0,0 0,0 1.55,0 2.81,0 4.36,0 0,0 0,0 0,0 0.34,0 0.68,0 1.01,0 -0.09,0.21 -0.18,0.42 -0.27,0.63 -0.76,0.48 -0.57,1.73 -0.5,2.7 0.18,2.53 0.44,5.05 0.65,7.58 0.11,1.21 0.37,2.26 1.21,3.19 -0.82,0.23 -1.36,0.31 -2.45,0.31 -1.76,0 -2.25,-1.12 -2.44,-3.09 -0.18,-2.73 -0.36,-5.47 -0.54,-8.21 -1.15,2.89 -2.21,5.59 -3.28,8.54 -0.23,0.7 -0.32,0.78 -0.07,1.47l-3.16 1.27 -4.02 -11.47c-0.27,2.65 -0.53,6.09 -0.69,8.73 -0.05,1.3 0.14,1.62 2.32,1.73l-1.27 0.73c-1.94,0 -1.28,-0.04 -3.23,-0.04 0.93,-0.63 1.2,-1.25 1.29,-3.14 0.19,-2.91 0.51,-7.11 0.87,-9.89l-0.03 -0.07c-0.79,-0.02 -1.41,-0.13 -2.41,0.28l1.34 -1.25z"/>
  <polygon class="fil8" points="169.17,271.16 169.17,238.9 163.28,238.9 163.28,232.53 184.5,232.53 184.5,238.9 178.61,238.9 178.61,271.16 "/>
  <path class="fil8" d="M200.84 248.1l0 16.36c0,0.68 0.1,1.14 0.3,1.4 0.2,0.27 0.54,0.4 1.01,0.4 0.4,0 0.72,-0.09 0.94,-0.3 0.24,-0.19 0.35,-0.46 0.35,-0.82l0 -0.68 0 -16.36c0,-0.69 -0.09,-1.16 -0.29,-1.41 -0.19,-0.24 -0.53,-0.37 -1,-0.37 -0.41,0 -0.74,0.1 -0.97,0.28 -0.23,0.19 -0.34,0.48 -0.34,0.84l0 0.66zm-8.32 0.73c0,-3.45 0.57,-5.59 1.71,-6.42 1.15,-0.83 3.79,-1.24 7.92,-1.24 4.21,0 6.86,0.44 7.96,1.32 1.09,0.88 1.65,2.99 1.65,6.34l0 14.86c0,3.41 -0.56,5.53 -1.66,6.38 -1.11,0.85 -3.74,1.28 -7.9,1.28 -4.26,0 -6.94,-0.45 -8.03,-1.33 -1.1,-0.89 -1.65,-3 -1.65,-6.33l0 -14.86z"/>
  <path class="fil8" d="M228.65 248.1l0 16.36c0,0.68 0.1,1.14 0.3,1.4 0.2,0.27 0.54,0.4 1.01,0.4 0.4,0 0.72,-0.09 0.94,-0.3 0.24,-0.19 0.35,-0.46 0.35,-0.82l0 -0.68 0 -16.36c0,-0.69 -0.09,-1.16 -0.29,-1.41 -0.19,-0.24 -0.52,-0.37 -1,-0.37 -0.41,0 -0.74,0.1 -0.97,0.28 -0.23,0.19 -0.34,0.48 -0.34,0.84l0 0.66zm-8.32 0.73c0,-3.45 0.57,-5.59 1.72,-6.42 1.14,-0.83 3.78,-1.24 7.91,-1.24 4.21,0 6.86,0.44 7.96,1.32 1.1,0.88 1.65,2.99 1.65,6.34l0 14.86c0,3.41 -0.55,5.53 -1.66,6.38 -1.1,0.85 -3.74,1.28 -7.9,1.28 -4.26,0 -6.94,-0.45 -8.03,-1.33 -1.1,-0.89 -1.65,-3 -1.65,-6.33l0 -14.86z"/>
  <polygon class="fil8" points="247.57,271.16 247.57,232.53 255.75,232.53 255.75,271.16 "/>
  <path class="fil8" d="M275.56 247.24c0,-0.67 -0.1,-1.13 -0.32,-1.39 -0.22,-0.25 -0.59,-0.38 -1.11,-0.38 -0.43,0 -0.74,0.13 -0.93,0.4 -0.19,0.26 -0.28,0.72 -0.28,1.37l0 16.3c0,0.67 0.09,1.13 0.29,1.39 0.2,0.25 0.54,0.38 1.03,0.38 0.49,0 0.83,-0.13 1.02,-0.37 0.21,-0.25 0.3,-0.72 0.3,-1.4l0 -16.3zm-11.19 -14.71l8.55 0 0 8.62c0.73,-0.56 1.5,-0.98 2.3,-1.25 0.8,-0.28 1.62,-0.43 2.49,-0.43 2.25,0 3.89,0.61 4.89,1.8 1.01,1.2 1.51,3.21 1.51,6.02l0 0.9 0 15.84c0,2.51 -0.52,4.35 -1.55,5.52 -1.04,1.17 -2.65,1.76 -4.85,1.76 -0.87,0 -1.69,-0.15 -2.49,-0.42 -0.8,-0.28 -1.57,-0.7 -2.3,-1.26l0 1.53 -8.55 0 0 -38.63z"/>
  <path class="fil8" d="M303.14 258.33c-1.03,0.32 -1.73,0.66 -2.1,1.02 -0.38,0.36 -0.57,1.06 -0.57,2.1l0 3.01c0,0.68 0.11,1.14 0.31,1.4 0.21,0.27 0.56,0.4 1.03,0.4 0.49,0 0.84,-0.12 1.03,-0.35 0.21,-0.23 0.3,-0.72 0.3,-1.45l0 -6.13zm-11.2 -6.85l0 -2.65c0,-3.45 0.58,-5.59 1.76,-6.42 1.17,-0.83 3.88,-1.24 8.11,-1.24 4.33,0 7.05,0.44 8.17,1.32 1.13,0.88 1.69,2.99 1.69,6.34l0 22.34 -8.47 0 0 -1.34c-0.85,0.51 -1.7,0.89 -2.57,1.14 -0.86,0.25 -1.77,0.38 -2.75,0.38 -2.21,0 -3.76,-0.51 -4.64,-1.52 -0.87,-1.01 -1.3,-3.06 -1.3,-6.14l0 -2.92c0,-1.43 0.26,-2.5 0.79,-3.22 0.52,-0.71 1.53,-1.42 3.04,-2.11l7.37 -3.41 0 -4.55c0,-0.4 -0.09,-0.69 -0.3,-0.88 -0.19,-0.18 -0.5,-0.28 -0.91,-0.28 -0.52,0 -0.89,0.12 -1.12,0.36 -0.22,0.25 -0.34,0.71 -0.34,1.42l0 3.38 -8.53 0z"/>
  <path class="fil8" d="M320.86 271.17l0 -29.83 8.55 0 0 1.41c0.73,-0.52 1.49,-0.91 2.27,-1.18 0.77,-0.27 1.53,-0.4 2.29,-0.4 2.02,0 3.5,0.57 4.39,1.72 0.91,1.14 1.36,3.03 1.36,5.67l0 0.86 0 4.13 -7.67 0 0 -5.08c0,-0.58 -0.09,-1.01 -0.3,-1.27 -0.19,-0.27 -0.5,-0.4 -0.91,-0.4 -0.54,0 -0.91,0.12 -1.13,0.35 -0.2,0.23 -0.3,0.68 -0.3,1.32l0 22.7 -8.55 0z"/>
 </g>
</svg>
